<svg xmlns="http://www.w3.org/2000/svg" xmlns:xlink="http://www.w3.org/1999/xlink" width="500" zoomAndPan="magnify" viewBox="0 0 375 374.999991" height="500" preserveAspectRatio="xMidYMid meet" version="1.0"><defs><g/><clipPath id="612afc78ca"><path d="M 5.300781 5.300781 L 369.800781 5.300781 L 369.800781 369.800781 L 5.300781 369.800781 Z M 5.300781 5.300781 " clip-rule="nonzero"/></clipPath><clipPath id="674a4bbb71"><path d="M 80.734375 80.734375 L 294.484375 80.734375 L 294.484375 294.484375 L 80.734375 294.484375 Z M 80.734375 80.734375 " clip-rule="nonzero"/></clipPath></defs><g clip-path="url(#612afc78ca)"><path fill="#ffffff" d="M 187.496094 369.695312 C 86.839844 369.695312 5.300781 287.59375 5.300781 187.496094 C 5.300781 87.402344 86.839844 5.300781 187.496094 5.300781 C 288.15625 5.300781 369.695312 86.839844 369.695312 187.496094 C 369.695312 288.15625 287.59375 369.695312 187.496094 369.695312 Z M 187.496094 16.546875 C 93.023438 16.546875 16.546875 93.023438 16.546875 187.496094 C 16.546875 281.96875 93.023438 358.449219 187.496094 358.449219 C 281.96875 358.449219 358.449219 281.96875 358.449219 187.496094 C 358.449219 93.023438 281.40625 16.546875 187.496094 16.546875 Z M 187.496094 16.546875 " fill-opacity="1" fill-rule="nonzero"/></g><g clip-path="url(#674a4bbb71)"><path fill="#ffffff" d="M 187.496094 294.261719 C 128.511719 294.261719 80.734375 246.152344 80.734375 187.496094 C 80.734375 128.84375 128.511719 80.734375 187.496094 80.734375 C 246.480469 80.734375 294.261719 128.511719 294.261719 187.496094 C 294.261719 246.480469 246.152344 294.261719 187.496094 294.261719 Z M 187.496094 87.324219 C 132.136719 87.324219 87.324219 132.136719 87.324219 187.496094 C 87.324219 242.855469 132.136719 287.671875 187.496094 287.671875 C 242.855469 287.671875 287.671875 242.855469 287.671875 187.496094 C 287.671875 132.136719 242.527344 87.324219 187.496094 87.324219 Z M 187.496094 87.324219 " fill-opacity="1" fill-rule="nonzero"/></g><g fill="#ffffff" fill-opacity="1"><g transform="translate(197.955283, 309.387612)"><g><path d="M -16.46875 -1.5 C -14.101562 -1.363281 -11.992188 -0.914062 -10.140625 -0.15625 C -8.285156 0.59375 -6.757812 1.53125 -5.5625 2.65625 C -4.375 3.78125 -3.507812 4.984375 -2.96875 6.265625 L -5.546875 9.078125 L -6.203125 9.046875 C -8.316406 4.972656 -11.816406 2.796875 -16.703125 2.515625 C -19.546875 2.347656 -21.691406 2.816406 -23.140625 3.921875 C -24.597656 5.023438 -25.390625 6.640625 -25.515625 8.765625 C -25.585938 10.003906 -25.414062 11.066406 -25 11.953125 C -24.59375 12.835938 -23.882812 13.613281 -22.875 14.28125 C -21.863281 14.945312 -20.46875 15.554688 -18.6875 16.109375 L -14.34375 17.46875 C -11.09375 18.445312 -8.738281 19.84375 -7.28125 21.65625 C -5.820312 23.476562 -5.171875 25.71875 -5.328125 28.375 C -5.441406 30.25 -6.019531 31.894531 -7.0625 33.3125 C -8.113281 34.738281 -9.59375 35.804688 -11.5 36.515625 C -13.40625 37.234375 -15.648438 37.519531 -18.234375 37.375 C -21.078125 37.207031 -23.453125 36.664062 -25.359375 35.75 C -27.265625 34.84375 -28.753906 33.554688 -29.828125 31.890625 L -27.484375 29.09375 L -26.84375 29.125 C -25.832031 30.507812 -24.609375 31.550781 -23.171875 32.25 C -21.734375 32.957031 -20.015625 33.375 -18.015625 33.5 C -15.398438 33.644531 -13.390625 33.25 -11.984375 32.3125 C -10.585938 31.382812 -9.835938 30.023438 -9.734375 28.234375 C -9.640625 26.523438 -10.054688 25.140625 -10.984375 24.078125 C -11.910156 23.015625 -13.519531 22.140625 -15.8125 21.453125 L -20.265625 20.09375 C -23.878906 19.03125 -26.457031 17.554688 -28 15.671875 C -29.539062 13.796875 -30.234375 11.472656 -30.078125 8.703125 C -29.953125 6.566406 -29.359375 4.703125 -28.296875 3.109375 C -27.242188 1.523438 -25.71875 0.320312 -23.71875 -0.5 C -21.726562 -1.332031 -19.3125 -1.664062 -16.46875 -1.5 Z M -16.46875 -1.5 "/></g></g></g><g fill="#ffffff" fill-opacity="1"><g transform="translate(169.55911, 308.02156)"><g><path d="M -15.59375 -5.015625 C -13.164062 -4.328125 -11.148438 -3.15625 -9.546875 -1.5 C -7.941406 0.144531 -6.882812 2.195312 -6.375 4.65625 C -5.875 7.125 -6.050781 9.851562 -6.90625 12.84375 C -7.757812 15.851562 -9.050781 18.269531 -10.78125 20.09375 C -12.507812 21.925781 -14.488281 23.117188 -16.71875 23.671875 C -18.957031 24.234375 -21.289062 24.171875 -23.71875 23.484375 C -26.625 22.648438 -28.78125 21.441406 -30.1875 19.859375 C -31.59375 18.273438 -32.414062 16.457031 -32.65625 14.40625 L -29.328125 13.21875 L -28.828125 13.359375 C -28.503906 15.078125 -27.859375 16.453125 -26.890625 17.484375 C -25.929688 18.523438 -24.53125 19.3125 -22.6875 19.84375 C -20.988281 20.320312 -19.382812 20.34375 -17.875 19.90625 C -16.375 19.476562 -15.046875 18.566406 -13.890625 17.171875 C -12.734375 15.785156 -11.828125 13.941406 -11.171875 11.640625 C -10.515625 9.359375 -10.316406 7.320312 -10.578125 5.53125 C -10.847656 3.738281 -11.5 2.257812 -12.53125 1.09375 C -13.570312 -0.0703125 -14.941406 -0.894531 -16.640625 -1.375 C -18.554688 -1.925781 -20.257812 -1.945312 -21.75 -1.4375 C -23.25 -0.9375 -24.617188 0.140625 -25.859375 1.796875 L -26.375 1.65625 L -28.59375 -0.6875 C -27.21875 -2.78125 -25.425781 -4.226562 -23.21875 -5.03125 C -21.007812 -5.84375 -18.46875 -5.835938 -15.59375 -5.015625 Z M -15.59375 -5.015625 "/></g></g></g><g fill="#ffffff" fill-opacity="1"><g transform="translate(144.570855, 300.872998)"><g><path d="M -4.453125 -2.203125 L -17.125 23.359375 L -20.71875 21.5625 L -18.734375 17.5625 L -19.171875 17.203125 C -21.796875 19.523438 -24.753906 19.867188 -28.046875 18.234375 C -29.796875 17.367188 -30.941406 16.40625 -31.484375 15.34375 L -28.9375 12.609375 L -28.421875 12.765625 C -27.703125 13.710938 -26.769531 14.46875 -25.625 15.03125 C -23.582031 16.039062 -21.632812 16.050781 -19.78125 15.0625 C -17.925781 14.082031 -16.148438 11.882812 -14.453125 8.46875 L -8.234375 -4.078125 Z M -4.453125 -2.203125 "/></g></g></g><g fill="#ffffff" fill-opacity="1"><g transform="translate(127.593384, 293.423546)"><g><path d="M -12.65625 -10.421875 C -10.519531 -8.773438 -9.007812 -6.890625 -8.125 -4.765625 C -7.238281 -2.648438 -7.039062 -0.390625 -7.53125 2.015625 C -8.03125 4.429688 -9.242188 6.890625 -11.171875 9.390625 C -13.085938 11.890625 -15.148438 13.695312 -17.359375 14.8125 C -19.578125 15.925781 -21.820312 16.328125 -24.09375 16.015625 C -26.363281 15.703125 -28.566406 14.722656 -30.703125 13.078125 C -32.835938 11.441406 -34.347656 9.566406 -35.234375 7.453125 C -36.117188 5.335938 -36.304688 3.066406 -35.796875 0.640625 C -35.296875 -1.785156 -34.085938 -4.25 -32.171875 -6.75 C -30.242188 -9.25 -28.175781 -11.046875 -25.96875 -12.140625 C -23.769531 -13.242188 -21.535156 -13.640625 -19.265625 -13.328125 C -16.992188 -13.023438 -14.789062 -12.054688 -12.65625 -10.421875 Z M -14.953125 -7.421875 C -17.203125 -9.148438 -19.472656 -9.765625 -21.765625 -9.265625 C -24.054688 -8.765625 -26.347656 -7.023438 -28.640625 -4.046875 C -30.941406 -1.046875 -32.035156 1.625 -31.921875 3.96875 C -31.816406 6.3125 -30.640625 8.347656 -28.390625 10.078125 C -26.140625 11.816406 -23.863281 12.429688 -21.5625 11.921875 C -19.257812 11.421875 -16.960938 9.679688 -14.671875 6.703125 C -12.378906 3.722656 -11.289062 1.0625 -11.40625 -1.28125 C -11.519531 -3.632812 -12.703125 -5.679688 -14.953125 -7.421875 Z M -14.953125 -7.421875 "/></g></g></g><g fill="#ffffff" fill-opacity="1"><g transform="translate(104.48145, 275.080556)"><g><path d="M -7.28125 -8.734375 C -5.914062 -7.242188 -5.265625 -5.6875 -5.328125 -4.0625 C -5.390625 -2.4375 -6.257812 -0.847656 -7.9375 0.703125 L -32.71875 23.515625 L -35.578125 20.421875 L -11 -2.203125 C -10.132812 -3.003906 -9.660156 -3.753906 -9.578125 -4.453125 C -9.492188 -5.148438 -9.78125 -5.859375 -10.4375 -6.578125 C -10.832031 -7.003906 -11.304688 -7.375 -11.859375 -7.6875 L -12.03125 -8.015625 L -9.9375 -10.625 C -9.5625 -10.539062 -9.132812 -10.320312 -8.65625 -9.96875 C -8.1875 -9.625 -7.726562 -9.210938 -7.28125 -8.734375 Z M -7.28125 -8.734375 "/></g></g></g><g fill="#ffffff" fill-opacity="1"><g transform="translate(95.285842, 265.262661)"><g><path d="M -6.296875 -9.484375 C -5.097656 -7.847656 -4.613281 -6.222656 -4.84375 -4.609375 C -5.082031 -3.003906 -6.125 -1.53125 -7.96875 -0.1875 L -35.109375 19.765625 L -37.609375 16.375 L -10.6875 -3.40625 C -9.726562 -4.113281 -9.171875 -4.804688 -9.015625 -5.484375 C -8.867188 -6.160156 -9.082031 -6.890625 -9.65625 -7.671875 C -10 -8.140625 -10.425781 -8.566406 -10.9375 -8.953125 L -11.0625 -9.28125 L -8.703125 -11.65625 C -8.359375 -11.53125 -7.96875 -11.269531 -7.53125 -10.875 C -7.09375 -10.476562 -6.679688 -10.015625 -6.296875 -9.484375 Z M -6.296875 -9.484375 "/></g></g></g><g fill="#ffffff" fill-opacity="1"><g transform="translate(87.182176, 254.304136)"><g/></g></g><g fill="#ffffff" fill-opacity="1"><g transform="translate(80.910487, 246.827163)"><g><path d="M -41.671875 -4.171875 C -42.960938 -7.773438 -43.421875 -11.101562 -43.046875 -14.15625 C -42.679688 -17.21875 -41.425781 -19.921875 -39.28125 -22.265625 C -37.132812 -24.609375 -34.0625 -26.5 -30.0625 -27.9375 C -26.070312 -29.363281 -22.503906 -29.847656 -19.359375 -29.390625 C -16.210938 -28.929688 -13.53125 -27.632812 -11.3125 -25.5 C -9.09375 -23.375 -7.335938 -20.507812 -6.046875 -16.90625 L -1.921875 -5.390625 L -37.546875 7.34375 Z M -9.453125 -15.234375 C -10.523438 -18.203125 -11.867188 -20.492188 -13.484375 -22.109375 C -15.097656 -23.722656 -17.132812 -24.660156 -19.59375 -24.921875 C -22.0625 -25.179688 -25.019531 -24.695312 -28.46875 -23.46875 C -31.957031 -22.21875 -34.5625 -20.710938 -36.28125 -18.953125 C -38 -17.203125 -38.972656 -15.1875 -39.203125 -12.90625 C -39.441406 -10.625 -39.023438 -8 -37.953125 -5.03125 L -35.484375 1.890625 L -6.984375 -8.3125 Z M -9.453125 -15.234375 "/></g></g></g><g fill="#ffffff" fill-opacity="1"><g transform="translate(68.84315, 213.46402)"><g><path d="M -0.828125 -16.359375 C -0.597656 -13.679688 -0.96875 -11.300781 -1.9375 -9.21875 C -2.90625 -7.144531 -4.445312 -5.472656 -6.5625 -4.203125 C -8.6875 -2.941406 -11.320312 -2.175781 -14.46875 -1.90625 C -17.613281 -1.644531 -20.335938 -1.957031 -22.640625 -2.84375 C -24.953125 -3.738281 -26.753906 -5.128906 -28.046875 -7.015625 C -29.347656 -8.898438 -30.113281 -11.179688 -30.34375 -13.859375 C -30.570312 -16.535156 -30.203125 -18.914062 -29.234375 -21 C -28.273438 -23.09375 -26.726562 -24.769531 -24.59375 -26.03125 C -22.46875 -27.289062 -19.832031 -28.050781 -16.6875 -28.3125 C -13.539062 -28.582031 -10.816406 -28.273438 -8.515625 -27.390625 C -6.222656 -26.503906 -4.425781 -25.113281 -3.125 -23.21875 C -1.820312 -21.320312 -1.054688 -19.035156 -0.828125 -16.359375 Z M -4.59375 -16.046875 C -4.832031 -18.878906 -5.910156 -20.972656 -7.828125 -22.328125 C -9.742188 -23.679688 -12.578125 -24.195312 -16.328125 -23.875 C -20.085938 -23.5625 -22.796875 -22.578125 -24.453125 -20.921875 C -26.109375 -19.265625 -26.816406 -17.019531 -26.578125 -14.1875 C -26.335938 -11.351562 -25.253906 -9.253906 -23.328125 -7.890625 C -21.410156 -6.523438 -18.582031 -6 -14.84375 -6.3125 C -11.09375 -6.632812 -8.382812 -7.628906 -6.71875 -9.296875 C -5.0625 -10.960938 -4.351562 -13.210938 -4.59375 -16.046875 Z M -4.59375 -16.046875 "/></g></g></g><g fill="#ffffff" fill-opacity="1"><g transform="translate(65.277715, 185.574033)"><g><path d="M 2.53125 -13.921875 L 1.578125 -8.6875 L -27.734375 -6.921875 L -26.984375 -11.015625 L -2.796875 -12.09375 L -2.703125 -12.640625 L -24.734375 -23.40625 L -23.9375 -27.765625 L 0.5 -30.265625 L 0.609375 -30.8125 L -21.671875 -40.265625 L -20.9375 -44.234375 L 5.875 -32.328125 L 4.921875 -27.0625 L -18.03125 -24.609375 L -18.125 -24.078125 Z M 2.53125 -13.921875 "/></g></g></g><g fill="#ffffff" fill-opacity="1"><g transform="translate(71.80809, 149.386399)"><g><path d="M 2.140625 -4.484375 L -23.625 -16.75 L -21.90625 -20.375 L -17.859375 -18.453125 L -17.515625 -18.890625 C -18.617188 -20.460938 -19.25 -22.101562 -19.40625 -23.8125 C -19.5625 -25.519531 -19.1875 -27.332031 -18.28125 -29.25 C -16.800781 -32.351562 -14.9375 -34.222656 -12.6875 -34.859375 C -10.445312 -35.503906 -7.6875 -35.046875 -4.40625 -33.484375 L 12.1875 -25.578125 L 10.375 -21.765625 L -6.109375 -29.625 C -7.671875 -30.363281 -9.019531 -30.757812 -10.15625 -30.8125 C -11.289062 -30.863281 -12.269531 -30.570312 -13.09375 -29.9375 C -13.914062 -29.3125 -14.648438 -28.320312 -15.296875 -26.96875 C -16.398438 -24.644531 -16.523438 -22.40625 -15.671875 -20.25 C -14.816406 -18.101562 -12.679688 -16.21875 -9.265625 -14.59375 L 3.953125 -8.296875 Z M 2.140625 -4.484375 "/></g></g></g><g fill="#ffffff" fill-opacity="1"><g transform="translate(85.101378, 122.737304)"><g/></g></g><g fill="#ffffff" fill-opacity="1"><g transform="translate(89.121584, 113.91636)"><g><path d="M -10.765625 -41.625 C -7.085938 -45.1875 -2.613281 -46.898438 2.65625 -46.765625 C 7.925781 -46.628906 12.367188 -44.691406 15.984375 -40.953125 C 19.617188 -37.191406 21.394531 -32.679688 21.3125 -27.421875 C 21.238281 -22.171875 19.3125 -17.710938 15.53125 -14.046875 C 11.71875 -10.367188 7.1875 -8.578125 1.9375 -8.671875 C -3.3125 -8.773438 -7.789062 -10.742188 -11.5 -14.578125 C -15.132812 -18.335938 -16.882812 -22.851562 -16.75 -28.125 C -16.613281 -33.394531 -14.617188 -37.894531 -10.765625 -41.625 Z M -10.046875 -40.421875 L -4.609375 -29.078125 L -13.828125 -20.15625 L -1.1875 -21.640625 L 4.40625 -9.859375 L 6.859375 -22.921875 L 19.59375 -24.546875 L 8.265625 -30.78125 L 10.421875 -43.625 L 1.140625 -34.640625 Z M -10.046875 -40.421875 "/></g></g></g><g fill="#ffffff" fill-opacity="1"><g transform="translate(117.219091, 88.180462)"><g/></g></g><g fill="#ffffff" fill-opacity="1"><g transform="translate(124.288108, 81.540054)"><g><path d="M 5.84375 -42.59375 C 10.601562 -44.488281 15.390625 -44.375 20.203125 -42.25 C 25.023438 -40.125 28.398438 -36.648438 30.328125 -31.828125 C 32.265625 -26.960938 32.195312 -22.113281 30.125 -17.28125 C 28.0625 -12.445312 24.582031 -9.054688 19.6875 -7.109375 C 14.769531 -5.148438 9.898438 -5.210938 5.078125 -7.296875 C 0.265625 -9.378906 -3.128906 -12.898438 -5.109375 -17.859375 C -7.046875 -22.710938 -6.953125 -27.550781 -4.828125 -32.375 C -2.703125 -37.195312 0.851562 -40.601562 5.84375 -42.59375 Z M 6.046875 -41.203125 L 6.78125 -28.65625 L -5.140625 -23.90625 L 7.125 -20.484375 L 7.796875 -7.453125 L 15.0625 -18.609375 L 27.4375 -15.28125 L 19.34375 -25.34375 L 26.21875 -36.390625 L 14.21875 -31.609375 Z M 6.046875 -41.203125 "/></g></g></g><g fill="#ffffff" fill-opacity="1"><g transform="translate(160.050999, 68.402923)"><g/></g></g><g fill="#ffffff" fill-opacity="1"><g transform="translate(171.094289, 66.25914)"><g/></g></g><g fill="#ffffff" fill-opacity="1"><g transform="translate(181.012893, 64.312917)"><g><path d="M 16.453125 1.6875 C 14.085938 1.519531 11.984375 1.046875 10.140625 0.265625 C 8.296875 -0.503906 6.78125 -1.453125 5.59375 -2.578125 C 4.40625 -3.710938 3.550781 -4.9375 3.03125 -6.25 L 5.640625 -9.03125 L 6.296875 -8.984375 C 8.367188 -4.867188 11.84375 -2.644531 16.71875 -2.3125 C 19.5625 -2.113281 21.71875 -2.5625 23.1875 -3.65625 C 24.65625 -4.75 25.460938 -6.351562 25.609375 -8.46875 C 25.691406 -9.707031 25.535156 -10.773438 25.140625 -11.671875 C 24.742188 -12.566406 24.039062 -13.351562 23.03125 -14.03125 C 22.03125 -14.707031 20.640625 -15.332031 18.859375 -15.90625 L 14.53125 -17.296875 C 11.300781 -18.316406 8.960938 -19.742188 7.515625 -21.578125 C 6.078125 -23.421875 5.445312 -25.671875 5.625 -28.328125 C 5.757812 -30.191406 6.359375 -31.828125 7.421875 -33.234375 C 8.492188 -34.640625 9.984375 -35.6875 11.890625 -36.375 C 13.804688 -37.070312 16.0625 -37.332031 18.65625 -37.15625 C 21.488281 -36.957031 23.851562 -36.390625 25.75 -35.453125 C 27.65625 -34.523438 29.132812 -33.226562 30.1875 -31.5625 L 27.8125 -28.765625 L 27.171875 -28.8125 C 26.171875 -30.21875 24.953125 -31.28125 23.515625 -32 C 22.085938 -32.726562 20.378906 -33.160156 18.390625 -33.296875 C 15.765625 -33.484375 13.75 -33.113281 12.34375 -32.1875 C 10.945312 -31.257812 10.1875 -29.90625 10.0625 -28.125 C 9.945312 -26.414062 10.34375 -25.019531 11.25 -23.9375 C 12.15625 -22.863281 13.757812 -21.976562 16.0625 -21.28125 L 20.484375 -19.875 C 24.085938 -18.769531 26.644531 -17.269531 28.15625 -15.375 C 29.675781 -13.476562 30.34375 -11.140625 30.15625 -8.359375 C 30.007812 -6.234375 29.398438 -4.378906 28.328125 -2.796875 C 27.265625 -1.222656 25.726562 -0.0351562 23.71875 0.765625 C 21.71875 1.578125 19.296875 1.882812 16.453125 1.6875 Z M 16.453125 1.6875 "/></g></g></g><g fill="#ffffff" fill-opacity="1"><g transform="translate(209.354194, 65.99463)"><g><path d="M 15.546875 5.1875 C 13.128906 4.476562 11.125 3.285156 9.53125 1.609375 C 7.945312 -0.0546875 6.914062 -2.125 6.4375 -4.59375 C 5.96875 -7.070312 6.175781 -9.796875 7.0625 -12.765625 C 7.945312 -15.765625 9.257812 -18.171875 11 -19.984375 C 12.75 -21.796875 14.742188 -22.960938 16.984375 -23.484375 C 19.234375 -24.015625 21.566406 -23.925781 23.984375 -23.21875 C 26.878906 -22.351562 29.019531 -21.117188 30.40625 -19.515625 C 31.789062 -17.921875 32.59375 -16.101562 32.8125 -14.0625 L 29.46875 -12.890625 L 28.96875 -13.03125 C 28.664062 -14.769531 28.035156 -16.160156 27.078125 -17.203125 C 26.128906 -18.242188 24.738281 -19.039062 22.90625 -19.59375 C 21.21875 -20.09375 19.617188 -20.132812 18.109375 -19.71875 C 16.597656 -19.300781 15.253906 -18.398438 14.078125 -17.015625 C 12.898438 -15.640625 11.972656 -13.800781 11.296875 -11.5 C 10.617188 -9.226562 10.398438 -7.195312 10.640625 -5.40625 C 10.890625 -3.625 11.523438 -2.140625 12.546875 -0.953125 C 13.578125 0.222656 14.9375 1.0625 16.625 1.5625 C 18.53125 2.132812 20.234375 2.175781 21.734375 1.6875 C 23.234375 1.195312 24.613281 0.125 25.875 -1.53125 L 26.390625 -1.375 L 28.59375 1 C 27.1875 3.082031 25.375 4.515625 23.15625 5.296875 C 20.945312 6.078125 18.410156 6.039062 15.546875 5.1875 Z M 15.546875 5.1875 "/></g></g></g><g fill="#ffffff" fill-opacity="1"><g transform="translate(234.279426, 73.42084)"><g><path d="M 4.421875 2.25 L 17.390625 -23.171875 L 20.96875 -21.34375 L 18.9375 -17.359375 L 19.359375 -17 C 22.015625 -19.28125 24.972656 -19.585938 28.234375 -17.921875 C 29.984375 -17.035156 31.125 -16.054688 31.65625 -14.984375 L 29.0625 -12.28125 L 28.578125 -12.4375 C 27.859375 -13.394531 26.925781 -14.164062 25.78125 -14.75 C 23.757812 -15.78125 21.816406 -15.8125 19.953125 -14.84375 C 18.085938 -13.882812 16.285156 -11.703125 14.546875 -8.296875 L 8.1875 4.171875 Z M 4.421875 2.25 "/></g></g></g><g fill="#ffffff" fill-opacity="1"><g transform="translate(251.164836, 81.058648)"><g><path d="M 12.53125 10.5625 C 10.414062 8.894531 8.925781 6.992188 8.0625 4.859375 C 7.207031 2.734375 7.035156 0.46875 7.546875 -1.9375 C 8.066406 -4.34375 9.304688 -6.785156 11.265625 -9.265625 C 13.210938 -11.742188 15.296875 -13.523438 17.515625 -14.609375 C 19.742188 -15.703125 21.992188 -16.078125 24.265625 -15.734375 C 26.535156 -15.398438 28.726562 -14.398438 30.84375 -12.734375 C 32.957031 -11.078125 34.445312 -9.1875 35.3125 -7.0625 C 36.175781 -4.9375 36.34375 -2.660156 35.8125 -0.234375 C 35.28125 2.179688 34.039062 4.628906 32.09375 7.109375 C 30.132812 9.585938 28.050781 11.363281 25.84375 12.4375 C 23.632812 13.507812 21.390625 13.878906 19.109375 13.546875 C 16.835938 13.210938 14.644531 12.21875 12.53125 10.5625 Z M 14.875 7.578125 C 17.101562 9.328125 19.363281 9.96875 21.65625 9.5 C 23.957031 9.03125 26.269531 7.316406 28.59375 4.359375 C 30.925781 1.390625 32.050781 -1.265625 31.96875 -3.609375 C 31.894531 -5.960938 30.742188 -8.015625 28.515625 -9.765625 C 26.273438 -11.523438 24 -12.164062 21.6875 -11.6875 C 19.382812 -11.207031 17.070312 -9.488281 14.75 -6.53125 C 12.425781 -3.570312 11.304688 -0.921875 11.390625 1.421875 C 11.472656 3.765625 12.632812 5.816406 14.875 7.578125 Z M 14.875 7.578125 "/></g></g></g><g fill="#ffffff" fill-opacity="1"><g transform="translate(274.080521, 99.65769)"><g><path d="M 7.1875 8.796875 C 5.84375 7.296875 5.207031 5.734375 5.28125 4.109375 C 5.351562 2.484375 6.238281 0.910156 7.9375 -0.609375 L 32.984375 -23.15625 L 35.8125 -20.015625 L 10.984375 2.34375 C 10.097656 3.132812 9.613281 3.875 9.53125 4.5625 C 9.445312 5.257812 9.726562 5.96875 10.375 6.6875 C 10.757812 7.125 11.222656 7.5 11.765625 7.8125 L 11.9375 8.140625 L 9.8125 10.734375 C 9.445312 10.648438 9.03125 10.425781 8.5625 10.0625 C 8.09375 9.707031 7.632812 9.285156 7.1875 8.796875 Z M 7.1875 8.796875 "/></g></g></g><g fill="#ffffff" fill-opacity="1"><g transform="translate(283.166326, 109.577268)"><g><path d="M 6.1875 9.546875 C 5.007812 7.898438 4.546875 6.273438 4.796875 4.671875 C 5.046875 3.066406 6.097656 1.597656 7.953125 0.265625 L 35.328125 -19.375 L 37.796875 -15.953125 L 10.65625 3.53125 C 9.6875 4.21875 9.117188 4.898438 8.953125 5.578125 C 8.796875 6.253906 9 6.988281 9.5625 7.78125 C 9.90625 8.25 10.332031 8.679688 10.84375 9.078125 L 10.96875 9.40625 L 8.578125 11.75 C 8.210938 11.625 7.816406 11.359375 7.390625 10.953125 C 6.972656 10.546875 6.570312 10.078125 6.1875 9.546875 Z M 6.1875 9.546875 "/></g></g></g><g fill="#ffffff" fill-opacity="1"><g transform="translate(291.128447, 120.625174)"><g/></g></g><g fill="#ffffff" fill-opacity="1"><g transform="translate(297.318874, 128.171473)"><g><path d="M 41.609375 4.625 C 42.859375 8.25 43.28125 11.582031 42.875 14.625 C 42.476562 17.675781 41.191406 20.363281 39.015625 22.6875 C 36.847656 25.007812 33.757812 26.863281 29.75 28.25 C 25.738281 29.632812 22.160156 30.082031 19.015625 29.59375 C 15.878906 29.101562 13.210938 27.78125 11.015625 25.625 C 8.828125 23.476562 7.109375 20.59375 5.859375 16.96875 L 1.859375 5.40625 L 37.609375 -6.9375 Z M 9.296875 15.328125 C 10.328125 18.304688 11.640625 20.613281 13.234375 22.25 C 14.828125 23.882812 16.851562 24.84375 19.3125 25.125 C 21.769531 25.414062 24.734375 24.960938 28.203125 23.765625 C 31.691406 22.554688 34.304688 21.082031 36.046875 19.34375 C 37.796875 17.613281 38.800781 15.609375 39.0625 13.328125 C 39.320312 11.054688 38.9375 8.429688 37.90625 5.453125 L 35.5 -1.5 L 6.890625 8.375 Z M 9.296875 15.328125 "/></g></g></g><g fill="#ffffff" fill-opacity="1"><g transform="translate(309.021873, 161.666851)"><g><path d="M 0.65625 16.375 C 0.457031 13.695312 0.851562 11.320312 1.84375 9.25 C 2.84375 7.175781 4.40625 5.519531 6.53125 4.28125 C 8.65625 3.039062 11.296875 2.300781 14.453125 2.0625 C 17.597656 1.832031 20.320312 2.175781 22.625 3.09375 C 24.925781 4.007812 26.710938 5.421875 27.984375 7.328125 C 29.265625 9.234375 30.003906 11.523438 30.203125 14.203125 C 30.390625 16.878906 29.988281 19.253906 29 21.328125 C 28.019531 23.398438 26.457031 25.054688 24.3125 26.296875 C 22.164062 27.535156 19.519531 28.269531 16.375 28.5 C 13.21875 28.738281 10.5 28.398438 8.21875 27.484375 C 5.9375 26.566406 4.148438 25.15625 2.859375 23.25 C 1.578125 21.34375 0.84375 19.050781 0.65625 16.375 Z M 4.421875 16.09375 C 4.617188 18.925781 5.671875 21.03125 7.578125 22.40625 C 9.484375 23.789062 12.3125 24.34375 16.0625 24.0625 C 19.832031 23.789062 22.550781 22.832031 24.21875 21.1875 C 25.894531 19.550781 26.632812 17.316406 26.4375 14.484375 C 26.226562 11.648438 25.164062 9.539062 23.25 8.15625 C 21.34375 6.769531 18.515625 6.210938 14.765625 6.484375 C 11.015625 6.765625 8.300781 7.726562 6.625 9.375 C 4.945312 11.019531 4.210938 13.257812 4.421875 16.09375 Z M 4.421875 16.09375 "/></g></g></g><g fill="#ffffff" fill-opacity="1"><g transform="translate(312.281547, 189.594808)"><g><path d="M -2.6875 13.90625 L -1.671875 8.671875 L 27.671875 7.234375 L 26.875 11.3125 L 2.65625 12.140625 L 2.5625 12.671875 L 24.484375 23.671875 L 23.640625 28.03125 L -0.84375 30.265625 L -0.953125 30.8125 L 21.234375 40.5 L 20.46875 44.46875 L -6.234375 32.265625 L -5.21875 27 L 17.75 24.8125 L 17.859375 24.265625 Z M -2.6875 13.90625 "/></g></g></g><g fill="#ffffff" fill-opacity="1"><g transform="translate(305.372845, 225.707679)"><g><path d="M -2.1875 4.46875 L 23.4375 17.03125 L 21.671875 20.625 L 17.65625 18.65625 L 17.3125 19.078125 C 18.382812 20.671875 18.988281 22.320312 19.125 24.03125 C 19.269531 25.75 18.878906 27.554688 17.953125 29.453125 C 16.429688 32.535156 14.546875 34.382812 12.296875 35 C 10.046875 35.613281 7.289062 35.117188 4.03125 33.515625 L -12.46875 25.4375 L -10.609375 21.65625 L 5.796875 29.6875 C 7.347656 30.445312 8.6875 30.859375 9.8125 30.921875 C 10.9375 30.984375 11.914062 30.707031 12.75 30.09375 C 13.582031 29.476562 14.328125 28.5 14.984375 27.15625 C 16.117188 24.84375 16.269531 22.601562 15.4375 20.4375 C 14.601562 18.269531 12.488281 16.351562 9.09375 14.6875 L -4.046875 8.25 Z M -2.1875 4.46875 "/></g></g></g><g fill="#ffffff" fill-opacity="1"><g transform="translate(291.745367, 252.207028)"><g/></g></g><g fill="#ffffff" fill-opacity="1"><g transform="translate(287.658416, 260.982873)"><g><path d="M 10.3125 41.734375 C 6.582031 45.253906 2.085938 46.914062 -3.171875 46.71875 C -8.441406 46.53125 -12.863281 44.546875 -16.4375 40.765625 C -20.03125 36.960938 -21.753906 32.4375 -21.609375 27.1875 C -21.472656 21.9375 -19.492188 17.5 -15.671875 13.875 C -11.828125 10.238281 -7.273438 8.5 -2.015625 8.65625 C 3.234375 8.8125 7.691406 10.828125 11.359375 14.703125 C 14.953125 18.503906 16.648438 23.035156 16.453125 28.296875 C 16.253906 33.566406 14.207031 38.046875 10.3125 41.734375 Z M 9.59375 40.515625 L 4.28125 29.125 L 13.59375 20.3125 L 0.9375 21.65625 L -4.515625 9.796875 L -7.125 22.84375 L -19.875 24.328125 L -8.609375 30.671875 L -10.921875 43.515625 L -1.53125 34.625 Z M 9.59375 40.515625 "/></g></g></g><g fill="#ffffff" fill-opacity="1"><g transform="translate(259.245183, 286.404416)"><g/></g></g><g fill="#ffffff" fill-opacity="1"><g transform="translate(252.133866, 292.965951)"><g><path d="M -6.296875 42.53125 C -11.078125 44.375 -15.867188 44.203125 -20.671875 42.015625 C -25.472656 39.835938 -28.8125 36.320312 -30.6875 31.46875 C -32.570312 26.59375 -32.453125 21.75 -30.328125 16.9375 C -28.203125 12.132812 -24.679688 8.785156 -19.765625 6.890625 C -14.828125 4.984375 -9.957031 5.097656 -5.15625 7.234375 C -0.363281 9.378906 2.992188 12.941406 4.921875 17.921875 C 6.796875 22.796875 6.644531 27.632812 4.46875 32.4375 C 2.289062 37.238281 -1.296875 40.601562 -6.296875 42.53125 Z M -6.5 41.125 L -7.09375 28.578125 L 4.859375 23.96875 L -7.359375 20.390625 L -7.890625 7.375 L -15.25 18.4375 L -27.609375 14.984375 L -19.625 25.125 L -26.625 36.109375 L -14.5625 31.46875 Z M -6.5 41.125 "/></g></g></g><g fill="#ffffff" fill-opacity="1"><g transform="translate(216.195896, 305.704194)"><g/></g></g><g fill="#ffffff" fill-opacity="1"><g transform="translate(205.129433, 307.724991)"><g/></g></g><g fill="#ffffff" fill-opacity="1"><g transform="translate(193.923798, 308.717249)"><g/></g></g></svg>